<?xml version="1.0" encoding="utf-8"?>
<!-- Generator: Adobe Illustrator 19.1.1, SVG Export Plug-In . SVG Version: 6.00 Build 0)  -->
<svg version="1.1" id="Слой_1" xmlns="http://www.w3.org/2000/svg" xmlns:xlink="http://www.w3.org/1999/xlink" x="0px" y="0px"
	 viewBox="-154 135.4 650.6 290.6" style="enable-background:new -154 135.4 650.6 290.6;" xml:space="preserve">
<style type="text/css">
	.st0{display:none;}
	.st1{display:inline;fill:#2C5277;}
	.st2{fill:#FFFFFF;}
	.st3{fill:url(#SVGID_1_);}
	.st4{opacity:0.7;fill:url(#SVGID_2_);enable-background:new    ;}
	.st5{opacity:0.51;fill:url(#SVGID_3_);enable-background:new    ;}
	.st6{opacity:0.8;fill:url(#SVGID_4_);enable-background:new    ;}
	.st7{fill:url(#SVGID_5_);}
	.st8{opacity:0.7;fill:url(#SVGID_6_);enable-background:new    ;}
	.st9{opacity:0.51;fill:url(#SVGID_7_);enable-background:new    ;}
	.st10{opacity:0.8;fill:url(#SVGID_8_);enable-background:new    ;}
	.st11{fill:url(#SVGID_9_);}
	.st12{fill:url(#SVGID_10_);}
	.st13{fill:url(#SVGID_11_);}
	.st14{fill:url(#SVGID_12_);}
	.st15{fill:url(#SVGID_13_);}
	.st16{fill:url(#SVGID_14_);}
	.st17{fill:url(#SVGID_15_);}
</style>
<g id="Слой_3" class="st0">
	<rect x="-154" y="135.4" class="st1" width="1280" height="800"/>
</g>
<g>
	<path class="st2" d="M240.2,567.1l6.6,3.5c-2.2,4.2-4.7,7.7-7.5,10.3s-6,4.6-9.5,5.9c-3.5,1.4-7.5,2-12,2c-9.9,0-17.6-3.2-23.2-9.7
		s-8.4-13.8-8.4-22c0-7.7,2.4-14.6,7.1-20.6c6-7.7,14-11.5,24.1-11.5c10.3,0,18.6,3.9,24.8,11.8c4.4,5.5,6.6,12.5,6.7,20.7h-54.6
		c0.1,7,2.4,12.8,6.8,17.3s9.7,6.8,16.1,6.8c3.1,0,6.1-0.5,9-1.6s5.4-2.5,7.5-4.3C235.6,574,237.8,571.1,240.2,567.1z M240.2,550.8
		c-1-4.2-2.6-7.5-4.6-10s-4.6-4.5-7.9-6s-6.7-2.3-10.3-2.3c-6,0-11.1,1.9-15.4,5.7c-3.1,2.8-5.5,7-7.1,12.5L240.2,550.8L240.2,550.8
		z"/>
	<path class="st2" d="M323.8,526.6v60.7h-7.7v-10.4c-3.3,4-6.9,7-11,9s-8.5,3-13.4,3c-8.6,0-15.9-3.1-22-9.3s-9.1-13.8-9.1-22.7
		c0-8.7,3.1-16.2,9.2-22.4c6.1-6.2,13.5-9.3,22.1-9.3c5,0,9.5,1.1,13.5,3.2c4,2.1,7.6,5.3,10.6,9.5v-11.2h7.8V526.6z M292.6,532.6
		c-4.3,0-8.4,1.1-12,3.2c-3.7,2.1-6.6,5.1-8.8,9c-2.2,3.9-3.3,7.9-3.3,12.3c0,4.3,1.1,8.4,3.3,12.3c2.2,3.9,5.1,6.9,8.8,9.1
		c3.7,2.2,7.7,3.3,11.9,3.3c4.3,0,8.3-1.1,12.1-3.2c3.8-2.2,6.8-5.1,8.8-8.7c2.1-3.7,3.1-7.8,3.1-12.4c0-7-2.3-12.9-6.9-17.6
		C305,534.9,299.3,532.6,292.6,532.6z"/>
	<path class="st2" d="M340.2,503.2h7.8v84.1h-7.8V503.2z"/>
	<path class="st2" d="M392.9,525c9.3,0,17.1,3.4,23.2,10.1c5.6,6.2,8.4,13.5,8.4,21.9c0,8.5-3,15.9-8.9,22.2s-13.5,9.5-22.8,9.5
		s-16.9-3.2-22.8-9.5c-5.9-6.3-8.9-13.7-8.9-22.2c0-8.4,2.8-15.7,8.4-21.9C375.8,528.4,383.5,525,392.9,525z M392.9,532.7
		c-6.5,0-12.1,2.4-16.7,7.2c-4.7,4.8-7,10.6-7,17.4c0,4.4,1.1,8.5,3.2,12.3c2.1,3.8,5,6.7,8.6,8.8c3.6,2.1,7.6,3.1,11.9,3.1
		c4.3,0,8.3-1,11.9-3.1c3.6-2.1,6.5-5,8.6-8.8s3.2-7.9,3.2-12.3c0-6.8-2.3-12.6-7-17.4C404.9,535.1,399.3,532.7,392.9,532.7z"/>
	<path class="st2" d="M445.8,504.1h7.8v22.5H466v6.7h-12.4v53.9h-7.8v-53.9h-10.6v-6.7h10.6V504.1z"/>
</g>
<g>
	<path class="st2" d="M100.3,209.1h91.2v5.6l-76.6,99.5H144c8.3,0,15.2-1.1,20.5-3.4c5.3-2.2,9.6-5.6,12.9-10.1s6.3-12,9-22.5h6.3
		l-2.4,41.5H93.4v-5l77.4-100H143c-7.6,0-13.4,0.7-17.6,2.2c-5.7,1.9-10.3,5.4-13.9,10.4s-6.1,11.7-7.5,20.1h-6.3L100.3,209.1z"/>
</g>
<path class="st2" d="M107.2,492.8h64l-37.7,86.5h35.2v19.3H104l37.5-85.9h-34.4v-19.9H107.2z"/>
<path class="st2" d="M275.5,293.7h-49.3c0.7,4.4,2.6,7.8,5.7,10.4s7,3.9,11.8,3.9c5.7,0,10.7-2,14.8-6l12.9,6.1
	c-3.2,4.6-7.1,8-11.6,10.2c-4.5,2.2-9.8,3.3-16,3.3c-9.6,0-17.4-3-23.5-9.1c-6-6.1-9.1-13.6-9.1-22.8c0-9.3,3-17.1,9-23.3
	c6-6.2,13.6-9.3,22.6-9.3c9.6,0,17.5,3.1,23.5,9.3c6,6.2,9.1,14.3,9.1,24.4L275.5,293.7z M260,281.6c-1-3.4-3-6.2-6-8.3
	s-6.5-3.2-10.4-3.2c-4.3,0-8,1.2-11.3,3.6c-2,1.5-3.9,4.1-5.6,7.9H260z"/>
<path class="st2" d="M333,258.6h15.4v61.2H333v-6.5c-3,2.9-6,4.9-9,6.2c-3,1.3-6.3,1.9-9.8,1.9c-7.9,0-14.7-3.1-20.5-9.2
	c-5.8-6.1-8.7-13.8-8.7-22.9c0-9.5,2.8-17.2,8.4-23.2s12.4-9.1,20.3-9.1c3.7,0,7.1,0.7,10.3,2.1c3.2,1.4,6.2,3.5,8.9,6.2v-6.7H333z
	 M316.9,271.2c-4.7,0-8.7,1.7-11.8,5c-3.1,3.4-4.7,7.7-4.7,12.9c0,5.3,1.6,9.6,4.8,13.1c3.2,3.4,7.1,5.1,11.8,5.1
	c4.8,0,8.8-1.7,12-5c3.2-3.4,4.8-7.8,4.8-13.2c0-5.3-1.6-9.6-4.8-12.9C325.8,272.9,321.8,271.2,316.9,271.2z"/>
<path class="st2" d="M362.3,235h15.4v84.8h-15.4V235z"/>
<path class="st2" d="M420.3,257.1c5.8,0,11.2,1.4,16.3,4.3s9,6.8,11.9,11.8c2.8,5,4.3,10.3,4.3,16c0,5.8-1.4,11.2-4.3,16.2
	c-2.9,5-6.8,9-11.7,11.8c-5,2.8-10.4,4.2-16.4,4.2c-8.8,0-16.3-3.1-22.5-9.4c-6.2-6.2-9.3-13.8-9.3-22.8c0-9.6,3.5-17.5,10.5-23.9
	C405.3,259.8,412.3,257.1,420.3,257.1z M420.5,271.5c-4.8,0-8.7,1.7-11.9,5c-3.2,3.3-4.8,7.6-4.8,12.7c0,5.3,1.6,9.6,4.7,12.9
	c3.1,3.3,7.1,5,11.9,5c4.8,0,8.8-1.7,12-5c3.2-3.3,4.8-7.6,4.8-12.9c0-5.3-1.6-9.5-4.7-12.8C429.5,273.2,425.5,271.5,420.5,271.5z"
	/>
<path class="st2" d="M467.2,236.1h15.4v22.6h9.1v13.2h-9.1v48h-15.4v-48h-7.9v-13.2h7.9V236.1z"/>
<g id="Слой_2">
	
		<linearGradient id="SVGID_1_" gradientUnits="userSpaceOnUse" x1="27.0113" y1="249.8816" x2="-96.4211" y2="373.3141" gradientTransform="matrix(1 0 0 -1 0 562.8)">
		<stop  offset="0.7917" style="stop-color:#F5E61A;stop-opacity:0.95"/>
		<stop  offset="0.8928" style="stop-color:#FFFFFF;stop-opacity:0.98"/>
	</linearGradient>
	<path class="st3" d="M-42.3,135.4l58.4,41.9L54.4,206c1,0.7,1.3,2.1,0.7,3.1l-91.3,163.2c-5.5,12.6-4.4,7.8-4.5-1.2L-42.3,210
		V135.4z"/>
	
		<linearGradient id="SVGID_2_" gradientUnits="userSpaceOnUse" x1="-39.6544" y1="300.5924" x2="55.3984" y2="300.5924" gradientTransform="matrix(1 0 0 -1 0 562.8)">
		<stop  offset="0.1862" style="stop-color:#F6EE46"/>
		<stop  offset="0.8298" style="stop-color:#E5FFBF"/>
	</linearGradient>
	<path class="st4" d="M-21,154.9L-39.6,369c-0.3,2.6,3.2,3.7,4.5,1.4l90.2-161.3c0.6-1.1,0.4-2.4-0.7-3.1l-71.5-52.8
		C-18.7,152.1-20.9,153.1-21,154.9z"/>
	
		<linearGradient id="SVGID_3_" gradientUnits="userSpaceOnUse" x1="-40.5492" y1="287.0314" x2="55.8766" y2="287.0314" gradientTransform="matrix(1 0 0 -1 0 562.8)">
		<stop  offset="1.063830e-002" style="stop-color:#F6E450"/>
		<stop  offset="0.2234" style="stop-color:#F9EC85"/>
		<stop  offset="0.7021" style="stop-color:#FFFFFF"/>
	</linearGradient>
	<path class="st5" d="M8.3,172.9l-48.9,206.2c-0.2,0.7,1.9-2.3,2.3-3l94-168.3c0.2-0.3,0.1-0.6-0.2-0.9L9.3,172.4
		C9,172.2,8.4,172.4,8.3,172.9z"/>
	
		<linearGradient id="SVGID_4_" gradientUnits="userSpaceOnUse" x1="56" y1="275.5027" x2="-40.5492" y2="275.5027" gradientTransform="matrix(1 0 0 -1 0 562.8)">
		<stop  offset="0" style="stop-color:#FFFFFF"/>
		<stop  offset="0.2979" style="stop-color:#F6E450"/>
	</linearGradient>
	<path class="st6" d="M39.2,194.6l-77.6,180.7c-0.2,0.4-2.2,5.1-2.1,4.8L56,207.6c0.1-0.1,0-0.3-0.1-0.4L39.2,194.6
		C39.1,194.5,39.3,194.4,39.2,194.6z"/>
	
		<linearGradient id="SVGID_5_" gradientUnits="userSpaceOnUse" x1="135.9967" y1="250.5995" x2="13.8163" y2="372.7799" gradientTransform="matrix(-1 0 0 -1 26.1012 562.8)">
		<stop  offset="0.7917" style="stop-color:#F6E40F;stop-opacity:0.98"/>
		<stop  offset="0.8883" style="stop-color:#FFFFFF;stop-opacity:0.95"/>
	</linearGradient>
	<path class="st7" d="M-42.3,135.4l-56.8,41.3l-39.2,29.3c-1,0.7-1.3,2.1-0.7,3.1l92,162.5c5.5,12.6,5.5,7.6,5.6-1.3l0.6-161
		L-42.3,135.4z"/>
	
		<linearGradient id="SVGID_6_" gradientUnits="userSpaceOnUse" x1="69.5897" y1="301.1754" x2="165.4512" y2="301.1754" gradientTransform="matrix(-1 0 0 -1 26.1012 562.8)">
		<stop  offset="0.1862" style="stop-color:#F6EE46"/>
		<stop  offset="0.8298" style="stop-color:#E5FFBF"/>
	</linearGradient>
	<path class="st8" d="M-62.1,154.4l18.6,214.1c0.3,2.6-3.2,3.7-4.5,1.4l-91-160.7c-0.6-1.1-0.4-2.4,0.7-3.1l72.4-53.5
		C-64.3,151.5-62.2,152.5-62.1,154.4z"/>
	
		<linearGradient id="SVGID_7_" gradientUnits="userSpaceOnUse" x1="68.6051" y1="287.6443" x2="166.0192" y2="287.6443" gradientTransform="matrix(-1 0 0 -1 26.1012 562.8)">
		<stop  offset="1.063830e-002" style="stop-color:#F6E450"/>
		<stop  offset="0.2234" style="stop-color:#F9EC85"/>
		<stop  offset="0.7021" style="stop-color:#FFFFFF"/>
	</linearGradient>
	<path class="st9" d="M-91.4,172.2l48.9,206.2c0.2,0.7-1.9-2.3-2.3-3l-95-167.7c-0.2-0.3-0.1-0.6,0.2-0.9l47.2-35
		C-92,171.6-91.5,171.8-91.4,172.2z"/>
	
		<linearGradient id="SVGID_8_" gradientUnits="userSpaceOnUse" x1="68.605" y1="276.1316" x2="166.1426" y2="276.1316" gradientTransform="matrix(-1 0 0 -1 26.1012 562.8)">
		<stop  offset="0.5585" style="stop-color:#F6E450"/>
		<stop  offset="0.9894" style="stop-color:#FFFFFF"/>
	</linearGradient>
	<path class="st10" d="M-122.3,194l77.7,180.7c0.2,0.4,2.2,5.1,2.1,4.8L-140,207.6c-0.1-0.1,0-0.3,0.1-0.4L-122.3,194
		C-122.1,193.9-122.4,193.8-122.3,194z"/>
	
		<linearGradient id="SVGID_9_" gradientUnits="userSpaceOnUse" x1="-41.3019" y1="176.0842" x2="-41.3019" y2="267.1941" gradientTransform="matrix(1 0 0 -1 0 562.8)">
		<stop  offset="0.2287" style="stop-color:#000015"/>
		<stop  offset="0.7606" style="stop-color:#F5E61A"/>
	</linearGradient>
	<path class="st11" d="M-71.7,329.3l30.4-33.7l30.5,31.8l-29.5,59.3c-10.2-18.8-20.5-37.6-30.6-56.3
		C-71.4,330-71.5,329.7-71.7,329.3z"/>
	<g>
		
			<linearGradient id="SVGID_10_" gradientUnits="userSpaceOnUse" x1="-77.3982" y1="228.0226" x2="-29.0852" y2="200.1291" gradientTransform="matrix(1 0 0 -1 0 562.8)">
			<stop  offset="4.255319e-002" style="stop-color:#DEFFBF;stop-opacity:0.5"/>
			<stop  offset="0.3351" style="stop-color:#F5E61A;stop-opacity:0.5"/>
			<stop  offset="0.7234" style="stop-color:#000015;stop-opacity:0.5"/>
			<stop  offset="0.8883" style="stop-color:#000015;stop-opacity:0.5"/>
		</linearGradient>
		<polygon class="st12" points="-61.9,315.3 -41.3,384 -72.6,326.6 		"/>
		
			<linearGradient id="SVGID_11_" gradientUnits="userSpaceOnUse" x1="-65.5691" y1="248.518" x2="-29.3445" y2="185.7752" gradientTransform="matrix(1 0 0 -1 0 562.8)">
			<stop  offset="2.127660e-002" style="stop-color:#DEFFBF;stop-opacity:0.5"/>
			<stop  offset="0.3617" style="stop-color:#F5E61A;stop-opacity:0.5"/>
			<stop  offset="0.7447" style="stop-color:#000015"/>
		</linearGradient>
		<polygon class="st13" points="-53.3,307.2 -41.6,384.1 -62.6,316.9 		"/>
		
			<linearGradient id="SVGID_12_" gradientUnits="userSpaceOnUse" x1="-47.1423" y1="268.2723" x2="-47.1423" y2="178.7798" gradientTransform="matrix(1 0 0 -1 0 562.8)">
			<stop  offset="0" style="stop-color:#DEFFBF;stop-opacity:0.5"/>
			<stop  offset="0.3777" style="stop-color:#F5E61A;stop-opacity:0.5"/>
			<stop  offset="0.7872" style="stop-color:#000015"/>
		</linearGradient>
		<polygon class="st14" points="-41.2,294.5 -41.3,384 -53.1,307.1 		"/>
	</g>
	<g>
		
			<linearGradient id="SVGID_13_" gradientUnits="userSpaceOnUse" x1="181.5817" y1="229.1838" x2="230.3643" y2="201.0192" gradientTransform="matrix(-1 0 0 -1 177.9543 562.8)">
			<stop  offset="4.255319e-002" style="stop-color:#DEFFBF;stop-opacity:0.5"/>
			<stop  offset="0.3351" style="stop-color:#F5E61A;stop-opacity:0.5"/>
			<stop  offset="0.7234" style="stop-color:#000015;stop-opacity:0.5"/>
			<stop  offset="0.8883" style="stop-color:#000015;stop-opacity:0.5"/>
		</linearGradient>
		<polygon class="st15" points="-19.6,314.4 -40.1,383.1 -9.2,324 		"/>
		
			<linearGradient id="SVGID_14_" gradientUnits="userSpaceOnUse" x1="193.9108" y1="249.4165" x2="230.1354" y2="186.6737" gradientTransform="matrix(-1 0 0 -1 177.9543 562.8)">
			<stop  offset="2.127660e-002" style="stop-color:#DEFFBF;stop-opacity:0.5"/>
			<stop  offset="0.3617" style="stop-color:#F5E61A;stop-opacity:0.5"/>
			<stop  offset="0.7447" style="stop-color:#000015"/>
		</linearGradient>
		<polygon class="st16" points="-28.2,306.3 -39.9,383.2 -18.9,316 		"/>
		
			<linearGradient id="SVGID_15_" gradientUnits="userSpaceOnUse" x1="212.697" y1="268.2723" x2="212.697" y2="179.6783" gradientTransform="matrix(-1 0 0 -1 177.9543 562.8)">
			<stop  offset="0" style="stop-color:#DEFFBF;stop-opacity:0.5"/>
			<stop  offset="0.3777" style="stop-color:#F5E61A;stop-opacity:0.5"/>
			<stop  offset="0.7872" style="stop-color:#000015"/>
		</linearGradient>
		<polygon class="st17" points="-41.2,294.5 -40.1,383.1 -28.3,306.2 		"/>
	</g>
</g>
</svg>
